<svg xmlns="http://www.w3.org/2000/svg" xmlns:xlink="http://www.w3.org/1999/xlink" x="0px" y="0px"
	 viewBox="0 0 156 156" style="enable-background:new 0 0 156 156;" xml:space="preserve">
<path d="M77.3,17.8c25.5,0,34.7,20.4,34.7,33.2c0,36.4-39.5,39.8-39.5,69.4c0,10,4.1,17.7,8.2,21.8c-9.7-4.4-16.5-16.7-16.5-29.6
	C64.2,85.2,101,82.8,101,52c0-14.3-13.3-22.8-24.3-22.8c-11.6,0-21.4,8.5-21.4,19.2c0,9.5,6.8,15.3,15.3,15.3
	c7.5,0,11.2-6.1,11.2-10.2c0-1.7-0.7-4.4-1.7-5.3c-4.1-1.9-9,2.2-9,7.8c-3.9-0.7-6.3-3.2-6.3-7.3c0-6.6,6.8-10.2,12.1-10.2
	c9.5,0,14.3,7,14.3,14.6c0,11.6-9,19.6-22.1,19.6C53.7,72.6,44,61,44,47.4C44,28.2,61,17.8,77.3,17.8z"/>
</svg>
