<svg xmlns="http://www.w3.org/2000/svg" xmlns:xlink="http://www.w3.org/1999/xlink" x="0px" y="0px"
	 viewBox="0 0 30.5 20.5" style="enable-background:new 0 0 30.5 20.5;" xml:space="preserve">
<g>
	<path d="M15.4,12.2l12.3-9.4V2.6c0-0.4-0.3-0.8-0.7-0.8H4.9c-0.4,0-0.8,0.4-0.9,0.8v0.2l10.6,9.4C14.9,12.4,15.2,12.4,15.4,12.2z"
		/>
	<polygon points="26.6,15.6 27.5,4.9 20.5,10.3 	"/>
	<polygon points="3.8,4.9 3,15.6 9.9,10.3 	"/>
	<path d="M16.5,13.4c-0.4,0.3-1,0.5-1.5,0.5s-1-0.2-1.4-0.5l-2.4-2.1l-8.4,6.4v0.1c0,0.4,0.3,0.8,0.7,0.8h22.1
		c0.4,0,0.8-0.4,0.9-0.8v-0.1l-7.2-6.4L16.5,13.4z"/>
</g>
</svg>
