<svg xmlns="http://www.w3.org/2000/svg" xmlns:xlink="http://www.w3.org/1999/xlink" x="0px" y="0px"
	 viewBox="0 0 59.8 59.8" style="enable-background:new 0 0 59.8 59.8;" xml:space="preserve">
<path d="M29.9,0C13.4,0,0,13.4,0,29.9s13.4,29.9,29.9,29.9s29.9-13.4,29.9-29.9S46.4,0,29.9,0C29.9,0,29.9,0,29.9,0z M38.2,45.1
	H17.5c-1.5,0-2.8-1.3-2.8-2.8V21.5h2.5v20.8c0,0.2,0.1,0.3,0.3,0.3h20.7V45.1z M44.1,36.6c-0.1,1.5-1.3,2.7-2.8,2.8h-21V18.5
	c0-1.5,1.3-2.8,2.8-2.8c0,0,0.1,0,0.1,0h20.9V36.6z"/>
<path d="M22.8,18.5v18.4h18.5c0.2,0,0.3-0.1,0.3-0.3V18.2H23.2C23,18.2,22.8,18.3,22.8,18.5z M28.6,24.7v-2.5h9v9h-2.5v-4.8L28.5,33
	l-1.8-1.8l6.6-6.5H28.6z"/>
</svg>
