<svg xmlns="http://www.w3.org/2000/svg" viewBox="0 0 59.7 59.7"><path d="M29.9,0A29.9,29.9,0,1,0,59.7,29.9,29.9,29.9,0,0,0,29.9,0ZM48.2,22.4c0,.2.1.6.1,1.1A25.1,25.1,0,0,1,45.4,35,23.6,23.6,0,0,1,37,44.3a23.8,23.8,0,0,1-13.5,3.9,24.1,24.1,0,0,1-13.3-3.9h2a17.1,17.1,0,0,0,10.9-3.7A8.5,8.5,0,0,1,18,39a8.1,8.1,0,0,1-3-4.3h1.6l2.3-.2a9.1,9.1,0,0,1-5-3.1,8.5,8.5,0,0,1-2-5.5h0A7.7,7.7,0,0,0,15.8,27,8.4,8.4,0,0,1,13,23.9a8.8,8.8,0,0,1-1.1-4.2,7.5,7.5,0,0,1,1.3-4.3,22.6,22.6,0,0,0,7.9,6.4A24.4,24.4,0,0,0,31,24.5a14.1,14.1,0,0,1-.1-2A9.6,9.6,0,0,1,32,18.1a9.8,9.8,0,0,1,3.2-3.2,8.9,8.9,0,0,1,4.3-1.1,8.1,8.1,0,0,1,3.5.7,11.5,11.5,0,0,1,2.9,2,18.4,18.4,0,0,0,5.5-2.1,8.3,8.3,0,0,1-3.8,4.8,15.7,15.7,0,0,0,5-1.4A19.2,19.2,0,0,1,48.2,22.4Z" transform="translate(0 0)"/></svg>