<?xml version="1.0" standalone="no"?>
<!DOCTYPE svg PUBLIC "-//W3C//DTD SVG 20010904//EN"
 "http://www.w3.org/TR/2001/REC-SVG-20010904/DTD/svg10.dtd">
<svg version="1.0" xmlns="http://www.w3.org/2000/svg"
 width="192.000000pt" height="192.000000pt" viewBox="0 0 192.000000 192.000000"
 preserveAspectRatio="xMidYMid meet">
<metadata>
Created by potrace 1.10, written by Peter Selinger 2001-2011
</metadata>
<g transform="translate(0.000000,192.000000) scale(0.100000,-0.100000)"
fill="#000000" stroke="none">
<path d="M910 1873 c-19 -7 -60 -44 -60 -55 0 -13 39 -9 72 8 29 15 34 15 65
0 72 -34 96 -11 33 32 -31 21 -77 27 -110 15z"/>
<path d="M465 1796 c-6 -8 -29 -36 -52 -63 l-41 -49 70 -84 c39 -47 106 -126
150 -177 l78 -91 -24 -37 c-33 -48 -62 -127 -71 -192 l-7 -53 -89 0 -89 0 0
45 c0 38 -3 45 -20 45 -18 0 -20 -7 -20 -65 l0 -65 63 0 62 0 -2 -77 c-1 -62
-5 -79 -17 -81 -9 -2 -16 -12 -16 -23 0 -17 7 -19 65 -19 61 0 65 1 65 23 0
20 -4 23 -30 19 l-30 -4 0 81 0 81 29 0 c28 0 30 -3 36 -52 9 -66 38 -145 71
-193 22 -32 23 -40 11 -54 -7 -9 -54 -63 -104 -121 l-90 -105 -74 1 -74 1 0
126 -1 127 63 0 63 0 0 -31 c0 -29 -2 -31 -30 -27 -25 4 -30 1 -30 -17 0 -19
5 -22 45 -21 l45 1 0 73 0 72 -95 0 -95 0 0 -175 0 -175 99 0 99 0 110 129
110 130 21 -23 c32 -34 110 -74 169 -87 l52 -11 0 -52 c0 -47 -12 -76 -31 -76
-5 0 -28 25 -53 55 l-45 55 -28 -35 c-15 -19 -31 -35 -34 -35 -16 0 -18 34 -4
50 13 15 14 19 1 29 -11 9 -22 3 -55 -36 -36 -43 -39 -49 -25 -63 13 -13 16
-13 25 0 8 13 13 10 34 -15 l25 -30 31 38 31 37 34 -41 c26 -31 34 -50 34 -79
0 -21 3 -45 6 -54 5 -13 -1 -16 -30 -16 l-36 0 0 -80 0 -80 -70 0 c-63 0 -70
-2 -70 -20 0 -18 7 -20 88 -20 l88 0 -4 35 c-3 28 -1 35 13 35 11 0 15 7 13
23 -2 12 -9 21 -16 20 -7 -2 -12 8 -12 22 0 24 2 25 35 19 l35 -6 0 67 c0 52
5 74 21 96 19 27 25 29 82 29 l62 -1 43 -53 c39 -47 47 -53 80 -51 30 1 37 5
37 20 0 15 -7 20 -27 20 -16 1 -33 6 -40 13 -9 9 1 12 45 12 l57 0 0 -95 0
-95 -35 0 c-32 0 -35 2 -35 30 0 24 4 30 17 28 12 -2 18 4 18 17 0 18 -8 20
-62 23 -61 3 -63 2 -63 -22 0 -23 3 -25 30 -20 l30 6 0 -51 0 -51 65 0 65 0 0
115 0 115 115 0 115 0 0 235 c0 202 2 235 15 235 8 0 15 9 15 20 0 17 -7 20
-45 20 -38 0 -45 -3 -45 -20 0 -11 4 -20 10 -20 5 0 10 -86 12 -215 l3 -215
-187 0 -187 0 -20 26 c-19 25 -24 26 -81 19 l-61 -7 3 48 c3 47 4 48 38 51 43
5 151 57 181 89 l21 23 55 -65 c31 -35 59 -64 62 -64 16 0 71 79 65 94 -8 22
-15 20 -40 -11 -19 -24 -24 -26 -38 -14 -11 10 -13 17 -6 26 7 9 6 16 -4 24
-10 9 -16 9 -21 1 -4 -7 -14 -1 -26 14 l-19 25 29 46 c17 26 33 60 36 76 6 29
8 29 76 29 62 0 69 2 69 20 0 18 -7 20 -60 20 -65 0 -65 1 -54 59 6 30 8 31
60 31 l54 0 0 70 0 70 70 0 70 0 0 -35 c0 -28 -4 -35 -20 -35 -13 0 -20 7 -20
20 0 13 -7 20 -19 20 -15 0 -19 -8 -19 -40 l-1 -40 60 0 59 0 0 75 0 75 -91 0
-91 0 4 195 3 195 -82 0 -83 0 0 -74 c0 -65 2 -74 20 -79 18 -5 20 0 20 54 l0
59 45 0 45 0 0 -245 0 -245 -39 0 -39 0 -10 58 c-35 196 -159 337 -324 367
l-38 7 0 54 c0 48 3 56 23 63 27 11 77 66 77 86 0 7 3 20 6 29 12 32 -32 17
-47 -16 -8 -17 -26 -41 -42 -52 -27 -20 -28 -20 -62 -2 -22 12 -39 32 -47 53
-8 21 -19 33 -30 33 -42 0 3 -99 57 -124 34 -16 35 -19 35 -71 l0 -53 -40 -7
c-51 -9 -149 -57 -179 -89 l-23 -24 -138 161 -139 161 27 32 c15 18 29 33 32
33 3 0 19 -17 35 -38 52 -67 195 -226 203 -226 4 0 27 21 51 48 l44 47 -37 36
c-30 30 -39 34 -52 23 -13 -10 -12 -15 6 -34 19 -20 20 -26 8 -44 -7 -12 -15
-21 -18 -21 -3 0 -59 61 -124 135 -65 74 -119 135 -120 135 0 0 -6 -6 -11 -14z
m457 -379 c-7 -8 -29 -19 -49 -25 -170 -51 -268 -240 -233 -447 7 -42 10 -78
7 -82 -14 -13 -30 57 -35 147 -3 79 0 106 17 158 47 139 126 218 256 257 45
14 53 12 37 -8z m155 -12 c144 -64 231 -223 220 -399 -6 -99 -25 -168 -38
-144 -6 10 -3 39 7 79 38 147 -27 331 -143 408 -26 17 -65 37 -88 43 -44 13
-65 25 -65 39 0 13 44 2 107 -26z m-83 -47 c-3 -4 0 -23 7 -42 10 -29 10 -39
-4 -69 -10 -19 -17 -39 -17 -44 0 -18 -45 -30 -93 -24 l-47 6 35 74 c20 41 34
81 33 90 -2 9 8 25 21 37 l24 21 23 -20 c13 -11 21 -24 18 -29z m143 -72 c45
-38 95 -155 100 -235 3 -36 1 -76 -4 -88 -7 -19 -25 9 -116 188 l-108 210 49
-25 c27 -14 63 -36 79 -50z m-349 -140 c-57 -112 -106 -205 -110 -205 -5 -1
-8 33 -8 74 0 85 30 182 74 240 24 31 117 95 139 95 4 0 -39 -92 -95 -204z
m256 97 c27 -75 28 -71 -20 -75 -24 -2 -44 -2 -44 -1 0 1 9 22 20 47 20 49 34
57 44 29z m66 -106 c0 -14 -150 -307 -158 -307 -7 0 -161 307 -156 312 6 7
314 2 314 -5z m45 -125 c14 -31 35 -66 46 -78 11 -11 21 -31 24 -42 2 -12 6
-26 9 -31 11 -17 -41 -31 -68 -18 -21 10 -26 19 -26 48 0 42 -15 59 -52 59
-15 0 -28 3 -28 7 0 18 54 122 61 117 4 -2 20 -30 34 -62z m-328 6 c13 -27 13
-28 -12 -28 -22 0 -25 4 -25 33 0 35 12 57 19 35 2 -7 10 -25 18 -40z m-12
-44 c43 -18 46 -30 21 -81 -18 -39 -24 -43 -56 -43 -20 0 -41 -5 -47 -11 -9
-9 -20 -8 -44 3 -18 9 -27 18 -20 22 6 4 11 16 11 27 0 11 11 31 24 46 13 14
34 48 47 76 l24 51 3 -38 c3 -32 8 -40 37 -52z m80 -124 c-2 -4 -18 -7 -34 -8
l-29 -1 15 37 c24 57 26 58 40 18 7 -21 11 -42 8 -46z m233 38 l-3 -43 -63 -2
c-35 -1 -62 2 -60 5 2 4 10 24 18 45 14 36 16 37 62 37 l49 0 -3 -42z m-420
-103 c43 -68 169 -135 250 -135 78 1 202 70 243 136 28 45 58 48 32 3 -63
-107 -219 -183 -327 -159 -94 21 -196 92 -232 162 -22 42 5 37 34 -7z m462 26
c0 -35 -151 -114 -216 -114 -52 0 -156 49 -198 92 l-30 31 222 0 c127 0 222
-4 222 -9z"/>
<path d="M993 773 c9 -2 25 -2 35 0 9 3 1 5 -18 5 -19 0 -27 -2 -17 -5z"/>
<path d="M910 1790 c-42 -42 -13 -130 43 -130 28 0 41 9 56 37 16 32 14 57
-10 87 -25 31 -61 34 -89 6z m70 -60 c0 -19 -25 -34 -41 -24 -13 8 -11 52 4
57 17 6 37 -12 37 -33z"/>
<path d="M1150 1638 c-1 -2 -2 -38 -3 -81 l-2 -77 43 0 c40 0 42 -1 42 -30 0
-23 4 -30 20 -30 18 0 20 7 20 80 0 73 -2 80 -20 80 -16 0 -20 -7 -20 -30 0
-25 -4 -30 -25 -30 -24 0 -25 3 -25 60 0 47 -3 60 -15 60 -8 0 -15 -1 -15 -2z"/>
<path d="M120 1456 c0 -113 2 -124 18 -122 15 3 17 15 17 104 l0 102 123 0
c102 0 122 -2 122 -15 0 -8 -9 -15 -20 -15 -14 0 -20 -7 -20 -22 0 -21 5 -23
55 -23 50 0 55 2 55 23 0 15 -6 22 -20 22 -16 0 -20 7 -20 35 l0 35 -155 0
-155 0 0 -124z"/>
<path d="M360 1390 c0 -42 3 -50 18 -50 15 0 18 6 14 30 -4 26 -1 30 19 30 23
0 24 -3 21 -62 l-3 -63 -110 3 -109 3 0 -24 c0 -24 1 -25 70 -20 l70 5 0 -36
c0 -29 4 -36 20 -36 16 0 20 7 20 36 l0 37 40 -6 40 -5 0 104 0 104 -55 0 -55
0 0 -50z"/>
<path d="M46 1304 c-20 -51 11 -135 54 -149 12 -4 38 -4 57 0 34 6 34 7 17 26
-9 11 -25 17 -34 14 -26 -8 -60 31 -60 69 0 39 -24 67 -34 40z"/>
<path d="M123 1283 c-15 -5 -17 -49 -4 -57 16 -10 41 5 41 24 0 21 -20 39 -37
33z"/>
<path d="M1770 1024 c0 -47 3 -55 18 -52 13 2 16 11 14 36 -3 29 -1 32 22 32
25 0 26 -2 26 -62 l0 -63 -110 3 -110 4 0 -26 c0 -18 5 -26 18 -26 15 0 17 -8
14 -61 l-4 -61 -39 5 c-36 5 -39 3 -39 -19 0 -23 3 -24 60 -24 l60 0 0 83 0
82 95 -3 95 -3 0 105 0 106 -60 0 -60 0 0 -56z"/>
<path d="M1582 848 c-18 -18 -14 -56 7 -68 36 -19 69 38 39 68 -7 7 -17 12
-23 12 -6 0 -16 -5 -23 -12z"/>
<path d="M1156 603 c-15 -15 -4 -23 29 -21 19 1 35 6 35 11 0 4 -8 7 -17 5
-10 -1 -23 1 -29 4 -6 4 -14 5 -18 1z"/>
<path d="M700 589 c0 -5 5 -7 10 -4 6 3 10 8 10 11 0 2 -4 4 -10 4 -5 0 -10
-5 -10 -11z"/>
<path d="M1022 248 c-7 -7 -12 -27 -12 -44 0 -37 -39 -75 -68 -67 -18 4 -50
-22 -40 -33 3 -3 21 -7 40 -11 49 -7 97 35 105 93 6 49 -6 81 -25 62z"/>
<path d="M932 228 c-18 -18 -14 -46 7 -58 15 -7 23 -6 35 6 19 18 19 20 6 45
-12 22 -30 25 -48 7z"/>
</g>
</svg>
