<svg xmlns="http://www.w3.org/2000/svg" viewBox="0 0 693.3 693.3" style="enable-background:new 0 0 693.3 693.3;">
<path d="M344.2,70.2c114.4,0,155.7,91.5,155.7,149c0,163.3-177.2,178.6-177.2,311.4c0,44.9,18.4,79.4,36.8,97.8
	c-43.5-19.7-74-74.9-74-132.8c0-122.9,165.1-133.7,165.1-271.9c0-64.2-59.7-102.3-109-102.3c-52,0-96,38.1-96,86.1
	c0,42.6,30.5,68.6,68.6,68.6c33.6,0,50.2-27.4,50.2-45.8c0-7.6-3.1-19.7-7.6-23.8c-18.4-8.5-40.4,9.9-40.4,35
	c-17.5-3.1-28.3-14.4-28.3-32.8c0-29.6,30.5-45.8,54.3-45.8c42.6,0,64.2,31.4,64.2,65.5c0,52-40.4,87.9-99.2,87.9
	C238.3,316.1,194.8,264,194.8,203C194.8,116.9,271.1,70.2,344.2,70.2z"/>
</svg>
