<svg xmlns="http://www.w3.org/2000/svg" viewBox="0 0 92 61.3"><path d="M2.6,35.8S0,31.6,0,30.7V2.6C0,2.3,2,0,2.6,0h7.6V32.6c0,.4,5.1,3.2,5.1,3.2Z" fill="#fff"/><path d="M30.7,61.3H21.6a1,1,0,0,1-1.1-1.1V35.8H30.7Z" fill="#fff"/><rect x="20.5" width="10.1" height="28.11" fill="#fff"/><polygon points="71.6 61.3 61.3 61.3 61.3 12.1 71.6 19.7 71.6 61.3" fill="#fff"/><polygon points="71.6 6.9 61.3 0 71.6 0 71.6 6.9" fill="#fff"/><path d="M92,58.8a2.3,2.3,0,0,1-2.6,2.5H82.1V0h7.3A5.5,5.5,0,0,1,92,2.6Z" fill="#fff"/><rect x="40.9" width="10.2" height="61.33" fill="#fff"/></svg>