<svg xmlns="http://www.w3.org/2000/svg" viewBox="0 0 196 57.7"><path d="M69.7,26.5c0-6.1-3.5-11.5-13.1-11.5-8.1,0-12.4,5.2-12.9,10l7.2,1.5a5.4,5.4,0,0,1,5.8-4.9c3.4,0,5.1,1.8,5.1,3.9s-.6,1.9-2.3,2.2l-7.4,1.1c-5,.7-9,3.7-9,9.1S47,47,53.4,47c4.5,0,7.4-2.1,8.9-4.5a21.9,21.9,0,0,0,.3,3.6h7.5c-.2-1.6-.3-3.2-.4-4.8Zm-7.9,7.4c0,5.4-3.2,7-6.6,7s-4-1.7-4-3.5,1.7-3.5,3.8-3.8l6.8-1Z" transform="translate(-2 -1)" fill="#fff"/><path d="M17.6,2.7H2V46.1H17.5C29.9,46.1,39,38.2,39,24.4S30,2.7,17.6,2.7Zm-.4,35.6H10.5V10.5h6.8c7.1,0,13,4.5,13,13.9S24.3,38.3,17.2,38.3Z" transform="translate(-2 -1)" fill="#fff"/><path d="M86.9,6.9H79.6v4.3c0,2.7-1.5,4.8-4.7,4.8H73.4v7.2h5.4v14c0,5.8,3.7,9.3,9.6,9.3a10.6,10.6,0,0,0,4.6-.7V39.1l-2.5.2c-2.4,0-3.6-.8-3.6-3.5V23.2H93V16H86.9Z" transform="translate(-2 -1)" fill="#fff"/><path d="M170,1h-.1a5,5,0,0,0,.1,10,4.9,4.9,0,0,0,5-5A5,5,0,0,0,170,1Z" transform="translate(-2 -1)" fill="#fff"/><path d="M195.4,8.5a10.9,10.9,0,0,1,2.6.3V1.9a13.9,13.9,0,0,0-4-.6c-6.7,0-11,4.4-11,11.2v3.4h-5v7h5V46.1h8.2V23H198V16h-6.8V12.6C191.2,9.3,193.6,8.5,195.4,8.5Z" transform="translate(-2 -1)" fill="#fff"/><path d="M151,19.5c-1.1-2-3.8-4.1-8.6-4.1-8.3,0-14,6.7-14,14.7s6,14.7,14,14.7c4.4,0,7.2-1.9,8.4-3.9v2.2c0,5.8-2.9,8.4-8,8.4a6.8,6.8,0,0,1-7.1-5.7l-7.3,2c.8,5.7,6.3,10.9,14.6,10.9,11.3,0,15.8-7.6,15.8-15.8V16H151Zm-.1,10.6c0,4.7-2.9,7.7-7.1,7.7s-7.2-3-7.2-7.7,3.2-7.6,7.2-7.6,7.1,3,7.1,7.6Z" transform="translate(-2 -1)" fill="#fff"/><path d="M123.4,26.5c0-6.1-3.6-11.5-13.1-11.5s-12.5,5.2-13,10l7.3,1.5c.2-2.6,2.2-4.9,5.7-4.9s5.1,1.8,5.1,3.9-.5,1.9-2.2,2.2l-7.5,1.1c-5,.7-9,3.7-9,9.1s3.9,9.1,10.4,9.1a10.3,10.3,0,0,0,8.9-4.5,14.6,14.6,0,0,0,.3,3.6h7.5a25.9,25.9,0,0,1-.4-4.8Zm-8,7.4c0,5.4-3.2,7-6.6,7s-3.9-1.7-3.9-3.5,1.6-3.5,3.7-3.8l6.8-1Z" transform="translate(-2 -1)" fill="#fff"/><rect x="164" y="15" width="8.2" height="30.16" fill="#fff"/></svg>