<svg viewBox="0 0 454 115" fill="none" xmlns="http://www.w3.org/2000/svg"><path d="M187.432 80.799a.82.82 0 0 0-.914.297c-2.17 2.977-5.357 4.334-11.125 4.334-6.646 0-11.458-3.438-13.179-10.313h39.664a.824.824 0 0 0 .821-.786c.075-1.622.075-2.476.075-4.369 0-16.041-11.226-28.187-27.497-28.187s-27.726 12.146-27.726 28.187c0 16.155 11.113 28.185 28.184 28.185 9.086 0 18.67-3.664 23.429-12.5a.833.833 0 0 0 .048-.706.835.835 0 0 0-.516-.485L187.432 80.8zm-25.316-16.233c1.488-5.952 6.301-9.967 13.176-9.967 6.529 0 12.029 4.125 13.062 9.968h-26.238zm84.837 16.233a.82.82 0 0 0-.914.297c-2.17 2.977-5.357 4.334-11.125 4.334-6.646 0-11.459-3.438-13.176-10.313h39.661a.828.828 0 0 0 .824-.786c.075-1.622.075-2.476.075-4.369 0-16.041-11.229-28.187-27.497-28.187s-27.729 12.146-27.729 28.187c0 16.155 11.116 28.185 28.187 28.185 9.083 0 18.67-3.664 23.426-12.5a.833.833 0 0 0 .047-.706.82.82 0 0 0-.515-.485L246.953 80.8zm-25.331-16.233c1.488-5.952 6.304-9.967 13.179-9.967 6.529 0 12.029 4.125 13.059 9.968h-26.238zM61.601 43.028h-14.17a.821.821 0 0 0-.82.821v52.209a.82.82 0 0 0 .82.821h14.17a.821.821 0 0 0 .822-.821V43.849a.821.821 0 0 0-.822-.821zm-7.086-27.155c-5.387 0-9.854 4.238-9.854 9.625 0 5.268 4.464 9.393 9.854 9.393 5.39 0 9.854-4.125 9.854-9.393 0-5.387-4.47-9.625-9.854-9.625zm90.041 27.155h-14.997v-17.51a.811.811 0 0 0-.239-.582.818.818 0 0 0-.582-.242h-14.167a.825.825 0 0 0-.821.825v17.509H93.583v-2.75c0-5.846 2.977-9.167 9.854-9.167.822 0 1.643.06 2.42.134a.816.816 0 0 0 .824-.487.821.821 0 0 0 .069-.331V19.415a.828.828 0 0 0-.673-.81 42.632 42.632 0 0 0-7.574-.791c-12.033 0-20.738 7.22-20.738 23.145v2.063h-9.697a.821.821 0 0 0-.821.821v10.714a.821.821 0 0 0 .821.822h9.72v40.655a.82.82 0 0 0 .822.821h14.16a.821.821 0 0 0 .822-.821V55.4h20.167v20.28c0 14.553 8.363 22.113 20.967 22.113a30.325 30.325 0 0 0 8.447-1.206.816.816 0 0 0 .595-.794v-11.23a.834.834 0 0 0-.255-.594.833.833 0 0 0-.605-.227c-1.724.074-3.247.074-3.837.074-7.22 0-9.523-3.553-9.523-10.312V55.4h15.008a.822.822 0 0 0 .822-.822V43.864a.828.828 0 0 0-.235-.59.827.827 0 0 0-.587-.246zm148.542-1.262c-16.729.116-25.779 10.416-25.779 24.979v29.464a.647.647 0 0 0 .651.652h14.506a.654.654 0 0 0 .652-.652V67.876c0-7.563 3.324-12.262 9.97-12.375 6.643.113 9.968 4.813 9.968 12.375v28.333a.647.647 0 0 0 .651.652h14.506a.654.654 0 0 0 .652-.652V66.745c0-14.55-9.051-24.863-25.777-24.98zM40.88 43.028H26.352v-2.75c0-5.846 2.976-9.167 9.854-9.167.893 0 1.786.069 2.608.152a.648.648 0 0 0 .714-.649V19.278a.657.657 0 0 0-.536-.643 42.995 42.995 0 0 0-7.714-.816c-12.03 0-20.738 7.22-20.738 23.146v2.063H.82a.82.82 0 0 0-.821.821v10.715a.818.818 0 0 0 .821.82h9.718V96.04a.82.82 0 0 0 .824.821H25.53a.821.821 0 0 0 .821-.821V55.4h14.53a.821.821 0 0 0 .824-.822V43.864a.822.822 0 0 0-.824-.836zm330.855 66.153l2.144.986a.765.765 0 0 0 .599.016.801.801 0 0 0 .435-.425l15.318-35.469a.838.838 0 0 0 .008-.657.802.802 0 0 0-.467-.448 15.307 15.307 0 0 1-2.028-.93.772.772 0 0 0-.904.11.805.805 0 0 0-.189.268L371.333 108.1a.829.829 0 0 0 .147.897c.072.078.159.14.255.183zm9.592-41.831l-28.839 26.574a.834.834 0 0 0-.266.571.837.837 0 0 0 .205.597l1.623 1.843a.798.798 0 0 0 1.141.062l28.839-26.575a.83.83 0 0 0 .259-.607.832.832 0 0 0-.259-.608 16.789 16.789 0 0 1-1.533-1.742.8.8 0 0 0-.886-.281.8.8 0 0 0-.284.166zm-40.091 6.93l.745 2.323a.813.813 0 0 0 .398.474.797.797 0 0 0 .613.049l36.734-12.085a.8.8 0 0 0 .482-.436.834.834 0 0 0 .01-.655 16.283 16.283 0 0 1-.701-2.19.826.826 0 0 0-.388-.523.798.798 0 0 0-.643-.067l-36.733 12.085a.793.793 0 0 0-.468.404.82.82 0 0 0-.049.62zm5.314-47.803l-1.233 2.184a.835.835 0 0 0-.104.311.843.843 0 0 0 .404.839l34.201 20.185a.808.808 0 0 0 .95-.094.837.837 0 0 0 .204-.274c.34-.714.73-1.403 1.166-2.06a.852.852 0 0 0 .127-.664.842.842 0 0 0-.388-.547L347.671 26.17a.814.814 0 0 0-.623-.085.811.811 0 0 0-.498.393zM362.59 9.18l-2.01 1.45a.821.821 0 0 0-.184 1.151l23.394 31.977a.833.833 0 0 0 1.212.138 16.5 16.5 0 0 1 1.897-1.372.821.821 0 0 0 .24-1.187L363.754 9.363a.831.831 0 0 0-1.164-.183zM385.288.017l-2.363.518a.806.806 0 0 0-.509.359.848.848 0 0 0-.114.623l8.052 38.914a.837.837 0 0 0 .377.54.794.794 0 0 0 .642.083c.733-.218 1.479-.38 2.234-.487a.798.798 0 0 0 .555-.343.854.854 0 0 0 .131-.65L386.244.657a.833.833 0 0 0-.35-.522.791.791 0 0 0-.606-.118zm24.366.518l-2.56-.518a.918.918 0 0 0-.657.118.834.834 0 0 0-.379.522l-8.723 38.916a.795.795 0 0 0 .145.651c.07.094.159.172.263.231a.908.908 0 0 0 .338.112c.817.106 1.625.27 2.418.487a.92.92 0 0 0 .696-.082.855.855 0 0 0 .265-.23.815.815 0 0 0 .146-.31l8.72-38.915a.799.799 0 0 0-.359-.854.894.894 0 0 0-.313-.128zm21.407 10.092l-1.936-1.451a.792.792 0 0 0-.593-.146.78.78 0 0 0-.519.329l-22.527 31.978a.824.824 0 0 0-.133.308.834.834 0 0 0 .365.879c.639.412 1.25.87 1.827 1.372a.782.782 0 0 0 1.164-.138l22.529-31.98a.842.842 0 0 0-.177-1.15zm16.254 18.035l-1.233-2.184a.832.832 0 0 0-.499-.394.802.802 0 0 0-.625.087l-34.205 20.188a.835.835 0 0 0-.388.546.854.854 0 0 0 .127.663c.435.658.825 1.347 1.166 2.06a.84.84 0 0 0 .499.441.813.813 0 0 0 .656-.073l34.199-20.188a.836.836 0 0 0 .406-.836.851.851 0 0 0-.103-.31zM412.904 65.04l36.731 12.086a.796.796 0 0 0 .614-.05.812.812 0 0 0 .4-.473l.745-2.324a.82.82 0 0 0-.243-.87.793.793 0 0 0-.274-.154L414.144 61.17a.799.799 0 0 0-.891.287.81.81 0 0 0-.14.303 16.287 16.287 0 0 1-.701 2.19.834.834 0 0 0 .206.924.8.8 0 0 0 .286.167zm-4.297 5.389l28.833 26.568a.798.798 0 0 0 1.141-.062l1.62-1.843a.84.84 0 0 0-.058-1.167L411.31 67.357a.79.79 0 0 0-1.182.113 16.883 16.883 0 0 1-1.532 1.74.836.836 0 0 0-.255.612.842.842 0 0 0 .266.607zm10.014 39.735l2.257-.987a.816.816 0 0 0 .435-.448.792.792 0 0 0-.015-.619l-16.127-35.478a.82.82 0 0 0-.491-.435.845.845 0 0 0-.66.056c-.688.36-1.402.671-2.136.931a.833.833 0 0 0-.492.448.797.797 0 0 0 .01.658l16.127 35.478a.818.818 0 0 0 .463.418c.204.074.43.066.629-.022zM393.309 74.96v38.485a.8.8 0 0 0 .802.8h2.403a.801.801 0 0 0 .803-.8V74.961a.797.797 0 0 0-.532-.756.799.799 0 0 0-.323-.044c-.381.03-.761.044-1.15.044-.39 0-.77 0-1.149-.044a.803.803 0 0 0-.789.48.796.796 0 0 0-.065.32zm-14.772-21.82l-39.184-5.031a.676.676 0 0 0-.318.035.787.787 0 0 0-.283.182.967.967 0 0 0-.204.3 1.141 1.141 0 0 0-.095.373l-.258 2.984c-.012.13-.002.263.028.39a1.1 1.1 0 0 0 .149.346.883.883 0 0 0 .246.25.72.72 0 0 0 .306.116l39.19 5.034a.678.678 0 0 0 .332-.04.797.797 0 0 0 .292-.199c.085-.09.153-.2.202-.324.048-.123.076-.258.08-.395 0-.476.036-.952.078-1.434.042-.483.098-.952.168-1.42a1.195 1.195 0 0 0-.155-.779.898.898 0 0 0-.254-.267.71.71 0 0 0-.32-.122zm35.531-.006l38.235-5.025a.649.649 0 0 1 .311.035c.1.038.194.1.275.182a.96.96 0 0 1 .2.3c.05.115.081.241.092.372l.252 2.98c.011.131.002.264-.028.39a1.09 1.09 0 0 1-.145.346.863.863 0 0 1-.24.25.688.688 0 0 1-.298.116l-38.233 5.039a.649.649 0 0 1-.324-.04.778.778 0 0 1-.284-.198c-.083-.09-.15-.2-.198-.324a1.216 1.216 0 0 1-.077-.395c0-.475-.038-.95-.077-1.433a21.74 21.74 0 0 0-.164-1.419 1.25 1.25 0 0 1 .007-.409c.025-.134.072-.26.138-.371a.887.887 0 0 1 .246-.27.692.692 0 0 1 .312-.126z" fill="#000"/></svg>