<svg xmlns="http://www.w3.org/2000/svg" viewBox="0 0 85.4 24.7"><path d="M0,24.3V0H6.5V9.9a7.2,7.2,0,0,1,6-2.8,7,7,0,0,1,5,1.8,5.6,5.6,0,0,1,2,4.5V24.3H13V15.9c0-2.7-1.1-4.1-3.2-4.1a3.1,3.1,0,0,0-2.5,1.1,4.7,4.7,0,0,0-.8,2.6v8.8Zm22.2-8.4a8.9,8.9,0,0,1,2.3-6.3,7.5,7.5,0,0,1,5.7-2.4,8.3,8.3,0,0,1,2.2.3,4.9,4.9,0,0,1,1.6.6l1.1.9a1.9,1.9,0,0,1,.6.7l.2.3V7.6h6.6V24.3H35.9V21.8l-.2.3-.6.7a4.4,4.4,0,0,1-1.1.9,5.4,5.4,0,0,1-1.7.7,7.1,7.1,0,0,1-2.1.3,7.5,7.5,0,0,1-5.8-2.4A9.4,9.4,0,0,1,22.2,15.9Zm6.1-.1a3.8,3.8,0,0,0,1.2,2.8,3.9,3.9,0,0,0,5.6,0,3.9,3.9,0,0,0,0-5.6,3.9,3.9,0,0,0-5.6,0A3.8,3.8,0,0,0,28.3,15.8Zm18.2,8.5V0h6.6V10l.2-.3.6-.7L55,8.1l1.6-.6a8.5,8.5,0,0,1,2.3-.3,7.4,7.4,0,0,1,5.6,2.4,8.9,8.9,0,0,1,2.3,6.3,8.9,8.9,0,0,1-2.2,6.4,7.5,7.5,0,0,1-5.7,2.4,7.8,7.8,0,0,1-2.2-.3,5.4,5.4,0,0,1-1.7-.7l-1.1-.9a1.9,1.9,0,0,1-.6-.7l-.2-.3v2.5Zm6.2-8.5a3.8,3.8,0,0,0,1.2,2.8,3.8,3.8,0,0,0,2.8,1.2,4,4,0,0,0,2.9-1.2,4.1,4.1,0,0,0,0-5.6,4,4,0,0,0-2.9-1.2A3.8,3.8,0,0,0,53.9,13,3.8,3.8,0,0,0,52.7,15.8Zm15.7,6.8L75,15.9,68.4,9.2l1.9-1.8L76.9,14l6.7-6.6,1.8,1.8-6.6,6.7,6.6,6.7-1.8,1.8-6.7-6.6-6.6,6.6Z" fill="#fff"/></svg>