<svg xmlns="http://www.w3.org/2000/svg" viewBox="0 0 440 61.6"><polygon points="243 51.2 243 44.8 229.1 44.8 229.1 34 240.8 34 240.8 27.9 229.1 27.9 229.1 17.7 243 17.7 243 11.3 221.2 11.3 221.2 11.3 221.2 51.2 243 51.2" fill="#fff"/><path d="M121.5,12.6c-9.9,0-17.9,9.3-17.9,20.8h0c0,11.5,8,20.9,17.9,20.9s17.9-9.4,17.9-20.9h0C139.5,21.9,131.4,12.6,121.5,12.6Zm0,36.4c-5.4,0-9.8-7-9.8-15.6s4.4-15.5,9.8-15.5,9.9,7,9.9,15.5S127,49,121.5,49Z" transform="translate(-5.1 -2.2)" fill="#fff"/><path d="M427.2,12.6c-9.9,0-17.9,9.3-17.9,20.8s8,21,17.9,21,17.9-9.4,17.9-21S437.1,12.6,427.2,12.6Zm0,36.4c-5.5,0-9.9-7-9.9-15.6s4.4-15.5,9.9-15.5,9.8,7,9.8,15.5h0C437,42,432.6,49,427.2,49Z" transform="translate(-5.1 -2.2)" fill="#fff"/><path d="M333,54c8.2,0,14.1-4.6,14.1-17.2V13H339V37.2h0c0,7.4-2.3,10.2-6,10.2s-6-2.8-6-10.2h0V13h-8.1V36.8C318.9,49.4,324.8,54,333,54Z" transform="translate(-5.1 -2.2)" fill="#fff"/><polygon points="185.8 11.3 165 11.3 171.5 17.8 171.5 44.8 165 51.2 185.8 51.2 179.3 44.8 179.3 17.8 185.8 11.3" fill="#fff"/><path d="M166.5,53.5V47l-13.7,1.5s-.7-6.3-.7-14.9c0-13.5,1.4-20.1,1.4-20.1h-9.7s1.3,6.7,1.3,20.1a127.1,127.1,0,0,1-1.3,19.9h22.7Z" transform="translate(-5.1 -2.2)" fill="#fff"/><polygon points="301 17.3 308 22.7 306.4 11.3 278.4 11.3 276.8 22.7 283.8 17.3 288.5 17.3 288.5 44.8 282 51.2 302.8 51.2 296.3 44.8 296.3 17.3 301 17.3" fill="#fff"/><path d="M191.7,33.5c0,11.3,8.1,20.9,18.2,20.9a16.2,16.2,0,0,0,9.3-2.5V43.3a10.1,10.1,0,0,1-8.2,4.6c-7,0-11.3-8.1-11.3-14.4S203.8,19,210.9,19c2.9,0,5.9,1.4,8.3,4.6V15.1a16.2,16.2,0,0,0-9.3-2.5C199.8,12.6,191.7,22.1,191.7,33.5Z" transform="translate(-5.1 -2.2)" fill="#fff"/><path d="M355.3,13.5v40h12.4c9.9,0,17.9-8.9,17.9-19.9s-8-20-17.9-20ZM367.7,47h-4.3V20h4.3c5.5,0,9.9,6.1,9.9,13.5S373.2,47,367.7,47Z" transform="translate(-5.1 -2.2)" fill="#fff"/><path d="M66.9,13.5,73.4,20V47l-6.5,6.5H87.5L81,47V40.9h4.3c20.2,0,20.2-27.4,0-27.4ZM85.6,34.9H80.9V20h4.7c4.8,0,7.2,3.2,7.2,7.4S90.4,34.9,85.6,34.9Z" transform="translate(-5.1 -2.2)" fill="#fff"/><polygon points="402.7 11.3 382 11.3 388.4 17.8 388.4 44.8 382 51.2 402.7 51.2 396.3 44.8 396.3 17.8 402.7 11.3" fill="#fff"/><path d="M273.7,33l-9.6-7c-1.9-1.3-2.8-2.4-2.8-3.8s2.1-4.3,5.2-4.3,6.6,2.3,9.5,6.2l1-8.6s-3.7-2.9-10.5-2.9c-13.1,0-16.3,13.7-8.3,19.5l9.6,6.9a7,7,0,0,1,3.3,5.4,4.6,4.6,0,0,1-4.7,4.6c-5.5,0-8.8-4.6-11.3-7.9l-.3-.5-1.3,9.2a18.5,18.5,0,0,0,12.7,4.6c8.3,0,13-5.7,13-11.6C279.2,39.2,277.2,35.6,273.7,33Z" transform="translate(-5.1 -2.2)" fill="#fff"/><path d="M36,47.2v2l-.9.4c-.2.2-2.8,1.5-9.5,1.5s-9.2-1.3-9.4-1.5l-.9-.4v-2c0-1.8-1.5-2.6-3.1-2.9l-.8-.2v5c0,3.2,3.8,14.6,14.2,14.8S39.9,52.3,39.9,49.1v-5l-.8.2C37.5,44.6,36,45.4,36,47.2ZM25.6,60.7a10.5,10.5,0,0,1-7.2-3.2l.4-.6c.8.5,2.8,1.4,6.8,1.4s6.1-.9,6.9-1.4l.4.6A10.7,10.7,0,0,1,25.6,60.7Z" transform="translate(-5.1 -2.2)" fill="#fff"/><path d="M46.2,23.4c0-10.9-9.7-21.1-20.6-21.2S5.1,12.5,5.1,23.4c0,3.2.6,5.2.6,8s-.3,2.9-.3,4.5c0,4.2,2.9,5.7,6,5.7s6.8,2.1,6.8,5.8v.3h0a23.9,23.9,0,0,0,7.4.9,24.2,24.2,0,0,0,7.5-.9h0v-.3c0-3.7,3.9-5.8,6.8-5.8s6-1.5,6-5.7c0-1.6-.3-2.3-.3-4.5S46.2,26.6,46.2,23.4ZM14.4,37.7a5.2,5.2,0,0,1-1.8-.3h-.5l-.9-.5-.7-.6a3,3,0,0,1-.8-.8A3.7,3.7,0,0,1,9,34.2a2.6,2.6,0,0,1-.3-.8,5,5,0,0,1-.2-1.2,8.1,8.1,0,0,1,1.7-4.9l.3.2a6.3,6.3,0,0,0-.3,1.9,6.9,6.9,0,0,0,6.9,6.9l1.5-.2v.4A8.1,8.1,0,0,1,14.4,37.7ZM30,41.6a2.8,2.8,0,0,1-1.9.9,2.2,2.2,0,0,1-1.3-.4,2.4,2.4,0,0,0-1.2-.3,2,2,0,0,0-1.1.3,2.2,2.2,0,0,1-1.3.4,2.8,2.8,0,0,1-1.9-.9,3.2,3.2,0,0,1-.6-2.7,14.2,14.2,0,0,1,1-2.1l.8.3s-1.1,3.5.7,3.5,1.7-1.4,1.7-1.4v-.5h1.5v.5s.5,1.4,1.7,1.4.7-3.5.7-3.5l.8-.3a14.2,14.2,0,0,1,1,2.1A3.5,3.5,0,0,1,30,41.6Zm12.6-8.2-.3.8a3.7,3.7,0,0,1-.7,1.2,3,3,0,0,1-.8.8l-.7.6-1,.5h-.4a5.2,5.2,0,0,1-1.8.3,8.1,8.1,0,0,1-4.2-1.2v-.4l1.5.2a6.9,6.9,0,0,0,6.9-6.9,12.5,12.5,0,0,0-.3-1.9l.3-.2a8.1,8.1,0,0,1,1.7,4.9A5,5,0,0,1,42.6,33.4Zm-2.5-8.7-.6.3a6.9,6.9,0,0,0-5.2-2.4,7,7,0,0,0-6.9,6.1,13.3,13.3,0,0,0,.2,2.9L27,32.8a1.7,1.7,0,0,0-1.4-.6,1.6,1.6,0,0,0-1.3.6l-.7-1.2a10.9,10.9,0,0,0,.3-2.9A7,7,0,0,0,17,22.6,6.9,6.9,0,0,0,11.8,25l-.7-.3A14.2,14.2,0,0,0,8,20H8C10,11,17.3,4.8,25.6,4.8h0C34,4.8,41.3,11,43.2,19.9h.1A15.5,15.5,0,0,0,40.1,24.7Z" transform="translate(-5.1 -2.2)" fill="#fff"/><polygon points="20.6 2.6 20.6 2.6 20.6 2.6 20.6 2.6" fill="#fff"/><path d="M25.6,4.8Z" transform="translate(-5.1 -2.2)" fill="#fff"/></svg>