<svg id="Layer_1" data-name="Layer 1" xmlns="http://www.w3.org/2000/svg" viewBox="0 0 147.3 35.5"><title>solide</title><path d="M30.8,25c0,7.3-8.4,10.5-15.3,10.5C6.1,35.5.4,31.7.4,31.7V24.5a26.2,26.2,0,0,0,16.1,5.1c4.2,0,10.5-.9,10.5-3.7C27,19.6,0,28.2,0,13,0,5.7,9.3,2.9,16.1,2.9S27.4,4.7,29.2,5.7v6.5A29.5,29.5,0,0,0,14.8,8.8C8.4,8.8,3,10.7,3,13.3,3,20.2,30.8,10.5,30.8,25Z" fill="#fff"/><path d="M62.5,22.7c0,6.9-6.4,12.6-14.2,12.6S34.1,29.6,34.1,22.7,40.4,10,48.3,10,62.5,15.7,62.5,22.7ZM48.3,32.6c5.5,0,7.2-4.5,7.2-9.9s-2.2-9.9-7.2-9.9-7.2,4.4-7.2,9.9S42.8,32.6,48.3,32.6Z" fill="#fff"/><path d="M72.7,2.8V34.7H66.5V2.8Z" fill="#fff"/><path d="M84.5,3.6a3.6,3.6,0,0,1-3.6,3.6,3.7,3.7,0,0,1-3.7-3.6A3.7,3.7,0,0,1,80.9,0,3.6,3.6,0,0,1,84.5,3.6Zm-6.7,7.1v24h6.1v-24Z" fill="#fff"/><path d="M115.3,34.7h-6.1V32.2c-1.7,1.8-4.4,3.1-8.3,3.1-7.9,0-13.4-5.7-13.4-12.6S93,10,100.9,10a10.7,10.7,0,0,1,8.3,3.4V2.8h6.1Zm-5.8-12c0-5.5-2.8-9.9-7.8-9.9s-7.2,4.4-7.2,9.9,1.7,9.9,7.2,9.9S109.5,28.1,109.5,22.7Z" fill="#fff"/><path d="M126,24c.3,4.3,2.7,8.6,9.3,8.6,5.1,0,8.1-2.7,11.1-6.4v3.7c-2.8,3.2-6,5.4-12.9,5.4s-14.6-5.7-14.6-12.6S125.3,10,133.1,10s14.2,5.1,14.2,12.1V24Zm0-2.5h14.3c-.3-5-2.5-8.7-7.2-8.7S126.3,16.5,126,21.5Z" fill="#fff"/></svg>