<svg viewBox="0 0 1170 371" xmlns="http://www.w3.org/2000/svg"><g opacity=".2"><path d="M1011.346 47.596c20.658-41.23 70.828-57.907 112.058-37.25 41.23 20.658 57.907 70.828 37.25 112.058l-100.206 200c-30.809 61.49-118.582 61.453-149.34-.063l-99.793-199.593c-20.623-41.247-3.904-91.403 37.344-112.027 41.247-20.623 91.403-3.903 112.026 37.344l25.187 50.375 25.474-50.844z"/><path d="M909.5 185c0 101.344-82.156 183.5-183.5 183.5S542.5 286.344 542.5 185 624.656 1.5 726 1.5 909.5 83.656 909.5 185z"/><path d="M628.5 185c0 101.344-82.156 183.5-183.5 183.5S261.5 286.344 261.5 185 343.656 1.5 445 1.5 628.5 83.656 628.5 185z"/><path d="M1.5 85C1.5 38.884 38.884 1.5 85 1.5h200c74.214 0 111.548 89.578 59.3 142.284l-58.24 58.753c45.606.592 82.394 37.746 82.394 83.493 0 46.116-37.384 83.5-83.5 83.5H85.722c-74.215 0-111.55-89.578-59.302-142.284l58.234-58.747C38.698 168.313 1.5 131.001 1.5 85z"/></g><path d="M328.16 271.726a45.456 45.456 0 012.294 14.304c0 25.129-20.37 45.5-45.5 45.5H85.722c-40.44 0-60.784-48.812-32.314-77.532L175.828 130.5H85c-25.129 0-45.5-20.371-45.5-45.5S59.871 39.5 85 39.5h200c32.047 0 51.474 30.655 43.987 57.673C355.556 62.133 397.635 39.5 445 39.5c67.227 0 123.805 45.593 140.5 107.545C602.195 85.093 658.773 39.5 726 39.5c47.389 0 89.486 22.655 116.053 57.725-5.528-20.466 3.905-42.668 23.6-52.515 22.475-11.238 49.806-2.127 61.044 20.349l59.14 118.283 59.483-118.724c11.257-22.466 38.595-31.554 61.062-20.298 22.466 11.257 31.554 38.595 20.298 61.062l-100.206 200c-16.788 33.506-64.617 33.486-81.377-.034L867.101 149.35A145.8 145.8 0 01871.5 185c0 80.357-65.143 145.5-145.5 145.5-67.227 0-123.805-45.593-140.5-107.545C568.805 284.907 512.227 330.5 445 330.5c-47.86 0-90.322-23.107-116.84-58.774zm-11.736-18.558C305.62 232.833 299.5 209.63 299.5 185c0-23.705 5.669-46.086 15.725-65.861L194.892 240.53h90.062c12.21 0 23.297 4.81 31.47 12.638zM780.5 185c0-30.1-24.4-54.5-54.5-54.5s-54.5 24.4-54.5 54.5 24.4 54.5 54.5 54.5 54.5-24.4 54.5-54.5zm-281 0c0-30.1-24.4-54.5-54.5-54.5s-54.5 24.4-54.5 54.5 24.4 54.5 54.5 54.5 54.5-24.4 54.5-54.5z"/></svg>